<svg width="28" height="28" fill="none" xmlns="http://www.w3.org/2000/svg"><mask id="a" style="mask-type:alpha" maskUnits="userSpaceOnUse" x="0" y="0" width="28" height="28"><path fill="#C4C4C4" d="M0 0h28v28H0z"/></mask><g mask="url(#a)" fill="#000"><path d="M26.029 8.802 14.242 2.438a.876.876 0 0 0-.832 0L1.625 8.802a.876.876 0 0 0 .832 1.54l.951-.513 1.9 13.432c.25 1.418 1.527 2.406 3.102 2.406h10.829c1.577 0 2.852-.99 3.106-2.435l1.897-13.405.955.515a.88.88 0 0 0 1.186-.354.877.877 0 0 0-.354-1.186Zm-5.411 14.156c-.125.707-.82.959-1.377.959H8.41c-.56 0-1.253-.252-1.373-.931L5.052 8.942l8.773-4.739 8.776 4.737-1.983 14.018Z"/><path d="M9.415 14.185a4.415 4.415 0 0 0 4.41 4.41 4.415 4.415 0 0 0 4.41-4.41 4.415 4.415 0 0 0-4.41-4.41 4.415 4.415 0 0 0-4.41 4.41Zm7.07 0a2.662 2.662 0 0 1-2.66 2.66 2.662 2.662 0 0 1-2.66-2.66 2.662 2.662 0 0 1 2.66-2.66 2.662 2.662 0 0 1 2.66 2.66Z"/></g></svg>